<svg width="79" height="62" viewBox="0 0 79 62" fill="none" xmlns="http://www.w3.org/2000/svg">
<rect width="79" height="62" fill="#1E1E1E"/>
<rect width="1024" height="768" transform="translate(-225 -330)" fill="white"/>
<rect width="79" height="62" fill="black"/>
<g filter="url(#filter0_d_0_1)">
<path d="M45.7168 22.0762H53.4688C53.5156 22.5332 53.5801 23.3008 53.6621 24.3789C53.7559 25.457 53.8438 26.4531 53.9258 27.3672C54.0195 28.2695 54.1309 29.3125 54.2598 30.4961C54.3887 31.668 54.5352 32.7109 54.6992 33.625C54.8633 34.5273 55.0449 35.3828 55.2441 36.1914C55.666 37.9023 56.1992 38.7578 56.8438 38.7578C57.0547 38.7578 57.2773 38.6699 57.5117 38.4941C56.6328 40.2168 55.6602 42.332 54.5938 44.8398C54.5117 45.0156 54.2949 45.2559 53.9434 45.5605C53.6035 45.8535 53.3047 46 53.0469 46H47.8965C47.6387 42.5781 47.1523 38.7051 46.4375 34.3809C45.7344 30.0566 44.9785 26.3359 44.1699 23.2188C44.1699 23.0664 44.3574 22.8379 44.7324 22.5332C45.1074 22.2285 45.4355 22.0762 45.7168 22.0762ZM58.7422 25.2227L58.6895 23.2188C58.6895 23.0664 58.877 22.8379 59.252 22.5332C59.6387 22.2285 59.9727 22.0762 60.2539 22.0762H65.8438C64.4844 24.3613 62.123 29.0078 58.7598 36.0156C58.6777 36.2031 58.4668 36.4434 58.127 36.7363C57.7871 37.0176 57.4824 37.1582 57.2129 37.1582C58.2324 33.4785 58.7422 29.5 58.7422 25.2227ZM33.1484 22.0762H40.918C41.5859 28.5801 42.2422 32.9863 42.8867 35.2949C43.543 37.6035 44.2051 38.7578 44.873 38.7578C45.1074 38.7578 45.3359 38.6699 45.5586 38.4941C44.8086 39.9707 43.8359 42.0859 42.6406 44.8398C42.5586 45.0156 42.3418 45.2559 41.9902 45.5605C41.6504 45.8535 41.3574 46 41.1113 46H35.9434C35.4629 42.4609 34.8125 38.5234 33.9922 34.1875C33.1836 29.8398 32.3926 26.1836 31.6191 23.2188C31.6191 23.0664 31.8066 22.8379 32.1816 22.5332C32.5566 22.2285 32.8789 22.0762 33.1484 22.0762Z" fill="#370000"/>
</g>
<g filter="url(#filter1_d_0_1)">
<path d="M29.2227 39H21.0312C22.7539 32.7773 23.9785 25.1836 24.7051 16.2188C24.7051 16.0664 24.8926 15.8379 25.2676 15.5332C25.6543 15.2285 25.9766 15.0762 26.2344 15.0762H34.0742C32.5625 21.4395 31.4609 29.0273 30.7695 37.8398C30.7695 37.9922 30.582 38.2266 30.207 38.543C29.832 38.8477 29.5039 39 29.2227 39ZM37.4492 26.0801C37.4492 24.4746 37.1914 22.6934 36.6758 20.7363C36.1719 18.7793 35.627 17.3613 35.041 16.4824C35.1113 15.9434 35.2871 15.4746 35.5684 15.0762H41.0352C40.6602 18.6035 40.1621 21.8848 39.541 24.9199C39.4941 25.0957 39.207 25.3359 38.6797 25.6406C38.1641 25.9336 37.7539 26.0801 37.4492 26.0801ZM16.0391 26.0625C16.1328 24.6914 16.3555 22.8926 16.707 20.666C17.0586 18.4277 17.3223 16.9805 17.498 16.3242C17.5801 16.0898 17.7793 15.8262 18.0957 15.5332C18.4238 15.2285 18.6934 15.0762 18.9043 15.0762H24.248C23.0527 16.5059 22.1328 17.8242 21.4883 19.0312C20.8555 20.2383 20.2402 21.4102 19.6426 22.5469C19.0566 23.6719 18.6055 24.5273 18.2891 25.1133C18.2188 25.2422 17.8906 25.4355 17.3047 25.6934C16.7305 25.9395 16.3086 26.0625 16.0391 26.0625Z" fill="#500000"/>
</g>
<defs>
<filter id="filter0_d_0_1" x="27.6191" y="22.0762" width="42.2246" height="31.9238" filterUnits="userSpaceOnUse" color-interpolation-filters="sRGB">
<feFlood flood-opacity="0" result="BackgroundImageFix"/>
<feColorMatrix in="SourceAlpha" type="matrix" values="0 0 0 0 0 0 0 0 0 0 0 0 0 0 0 0 0 0 127 0" result="hardAlpha"/>
<feOffset dy="4"/>
<feGaussianBlur stdDeviation="2"/>
<feComposite in2="hardAlpha" operator="out"/>
<feColorMatrix type="matrix" values="0 0 0 0 0 0 0 0 0 0 0 0 0 0 0 0 0 0 0.25 0"/>
<feBlend mode="normal" in2="BackgroundImageFix" result="effect1_dropShadow_0_1"/>
<feBlend mode="normal" in="SourceGraphic" in2="effect1_dropShadow_0_1" result="shape"/>
</filter>
<filter id="filter1_d_0_1" x="12.0391" y="15.0762" width="32.9961" height="31.9238" filterUnits="userSpaceOnUse" color-interpolation-filters="sRGB">
<feFlood flood-opacity="0" result="BackgroundImageFix"/>
<feColorMatrix in="SourceAlpha" type="matrix" values="0 0 0 0 0 0 0 0 0 0 0 0 0 0 0 0 0 0 127 0" result="hardAlpha"/>
<feOffset dy="4"/>
<feGaussianBlur stdDeviation="2"/>
<feComposite in2="hardAlpha" operator="out"/>
<feColorMatrix type="matrix" values="0 0 0 0 0 0 0 0 0 0 0 0 0 0 0 0 0 0 0.25 0"/>
<feBlend mode="normal" in2="BackgroundImageFix" result="effect1_dropShadow_0_1"/>
<feBlend mode="normal" in="SourceGraphic" in2="effect1_dropShadow_0_1" result="shape"/>
</filter>
</defs>
</svg>
